<?xml version="1.0" encoding="iso-8859-1"?>
<!-- Generator: Adobe Illustrator 18.1.1, SVG Export Plug-In . SVG Version: 6.00 Build 0)  -->
<svg xmlns="http://www.w3.org/2000/svg" xmlns:xlink="http://www.w3.org/1999/xlink" version="1.1" id="Capa_1" x="0px" y="0px" viewBox="0 0 611.998 611.998" style="enable-background:new 0 0 611.998 611.998;" xml:space="preserve" width="512px" height="512px">
<g>
	<g>
		<path d="M23.538,156.923c16.412,0,23.419,4.67,34.023,11.739c13.128,8.752,29.465,19.646,60.129,19.646    c30.665,0,47.003-10.893,60.13-19.646c10.601-7.069,17.607-11.737,34.014-11.737c16.411,0,23.415,4.67,34.019,11.737    c13.13,8.754,29.467,19.646,60.135,19.646c30.663,0,47.004-10.893,60.134-19.646c10.601-7.068,17.607-11.737,34.018-11.737    c16.414,0,23.422,4.67,34.026,11.739c13.13,8.752,29.469,19.646,60.136,19.646c30.665,0,47.003-10.893,60.132-19.646    c10.606-7.069,17.612-11.739,34.026-11.739c13,0,23.538-10.539,23.538-23.538c0-13-10.538-23.54-23.538-23.54    c-30.67,0-47.009,10.893-60.139,19.646c-10.604,7.069-17.61,11.737-34.019,11.737c-16.414,0-23.419-4.67-34.023-11.739    c-13.13-8.752-29.47-19.646-60.139-19.646c-30.665,0-47.004,10.893-60.134,19.646c-10.602,7.069-17.607,11.739-34.018,11.739    c-16.414,0-23.419-4.67-34.023-11.739c-13.128-8.752-29.469-19.646-60.132-19.646c-30.665,0-47.003,10.893-60.13,19.646    c-10.601,7.069-17.607,11.737-34.014,11.737s-23.414-4.67-34.014-11.737c-13.13-8.754-29.469-19.648-60.137-19.648    C10.538,109.846,0,120.385,0,133.385S10.538,156.923,23.538,156.923z" fill="#FFFFFF"/>
	</g>
</g>
<g>
</g>
<g>
</g>
<g>
</g>
<g>
</g>
<g>
</g>
<g>
</g>
<g>
</g>
<g>
</g>
<g>
</g>
<g>
</g>
<g>
</g>
<g>
</g>
<g>
</g>
<g>
</g>
<g>
</g>
</svg>
